<?xml version="1.0" encoding="UTF-8" standalone="no"?>
<svg
   viewBox="-10.647726262130398 -11.264324109333018 21.26524645065852 22.322606685998284"
   version="1.1"
   id="svg1"
   sodipodi:docname="srn2V1.svg"
   inkscape:version="1.3.2 (091e20e, 2023-11-25, custom)"
   xmlns:inkscape="http://www.inkscape.org/namespaces/inkscape"
   xmlns:sodipodi="http://sodipodi.sourceforge.net/DTD/sodipodi-0.dtd"
   xmlns="http://www.w3.org/2000/svg"
   xmlns:svg="http://www.w3.org/2000/svg">
  <defs
     id="defs1" />
  <sodipodi:namedview
     id="namedview1"
     pagecolor="#454545"
     bordercolor="#000000"
     borderopacity="0.25"
     inkscape:showpageshadow="2"
     inkscape:pageopacity="0.0"
     inkscape:pagecheckerboard="0"
     inkscape:deskcolor="#d1d1d1"
     inkscape:zoom="256"
     inkscape:cx="10.634766"
     inkscape:cy="11.162109"
     inkscape:window-width="1920"
     inkscape:window-height="1111"
     inkscape:window-x="-9"
     inkscape:window-y="-9"
     inkscape:window-maximized="1"
     inkscape:current-layer="svg1" />
  <path
     d="M 0.0,-1.0 L 0.0518538013259216,-0.9689927529881386 L -0.0012115326609392304,-0.9385186924739307 L -0.06612945444786711,-0.9969368672018804 L -0.1700990281729549,-1.0408395639956456 L -0.3039814100313283,-1.0054036844545566 L -0.43315977376854303,-1.0582825766652657 L -0.5985356467796448,-1.0470625955263853 L -0.5336177249927169,-0.9886444207984356 L -0.48055239100585606,-1.0191184813126435 L -0.44280144035273517,-1.0076944318212486 L -0.42483539708703044,-0.9578990659210096 L -0.6175201885281224,-0.8368708462043974 L -0.5995591523620704,-0.6723794328475785 L -0.5295405545300528,-0.4753222805972182 L -0.4060264614770264,-0.28050563392190375 L -0.22224812888039897,-0.11977339419808179 L 0.22224812888039897,0.11977339419808179 L 0.4060264614770264,0.28050563392190375 L 0.5295405545300528,0.4753222805972182 L 0.5995591523620704,0.6723794328475785 L 0.6175201885281224,0.8368708462043974 L 0.42483539708703044,0.9578990659210096 L 0.44280144035273517,1.0076944318212486 L 0.48055239100585606,1.0191184813126435 L 0.5336177249927169,0.9886444207984356 L 0.5985356467796448,1.0470625955263853 L 0.43315977376854303,1.0582825766652657 L 0.3039814100313283,1.0054036844545566 L 0.1700990281729549,1.0408395639956456 L 0.06612945444786711,0.9969368672018804 L 0.0012115326609392304,0.9385186924739307 L -0.0518538013259216,0.9689927529881386 L 0.0,1.0 L -0.059281986707731445,1.0151737960756377 L -0.09260314854812075,0.9940706362268664 L -0.09659888719517302,0.9412843572480608 L 0.12143334053484225,0.8761905288804159 L 0.14811382759517308,0.7128865929250765 L 0.1333411633294166,0.5042819580631572 L 0.0664220825388416,0.28353075505245884 L -0.06768117703436824,0.07950711870001781 L -0.43193125750085726,-0.2701805503339737 L -0.5660345170740672,-0.47420418668641473 L -0.6329535978646421,-0.6949553896971129 L -0.6477262621303986,-0.9035600245590323 L -0.6210457750700679,-1.0668639605143717 L -0.4030135473400525,-1.1319577888820165 L -0.4070092859871048,-1.184744067860822 L -0.44033044782749403,-1.2058472277095937 L -0.4996124345352255,-1.190673431633956 L -0.5465442721526441,-1.2643241093330184 L -0.3841907439148412,-1.2309115485260733 L -0.2738574444345213,-1.145414239065237 L -0.13537477794263753,-1.143757491583103 L -0.046931837617418516,-1.0736506776990624 Z"
     fill="black"
     stroke="none"
     id="path1" />
  <path
     d="m 0.0205218,-1.0583633 0.041659,0.043756 -0.059286,0.0151547 -0.046908,-0.0736647 -0.08842,-0.070134 -0.1384823,-0.0017 -0.110306,-0.085533 -0.1623429,-0.033465 0.046908,0.073666 0.059286,-0.015154 0.033315,0.021113 0.00398,0.052789 -0.218053,0.065025 -0.026732,0.16329538 0.014708,0.20860944 0.066849,0.2207725 0.1340381,0.20406645 0.3641386,0.34980382 0.1340381,0.20406639 0.066849,0.22077254 0.014706,0.20860934 -0.026732,0.16329541 -0.218053,0.0650243 0.00398,0.0527873 0.033315,0.0211137 0.059286,-0.015155 0.046908,0.073666 -0.1623429,-0.033465 -0.1103062,-0.0855314 -0.138482,-0.0017 -0.08842,-0.0701351 -0.046908,-0.0736656 -0.059286,0.015155 0.041659,0.0437579 -0.06118,-0.001251 -0.026455,-0.0292537 0.010282,-0.0519292 0.2275002,-0.004345 0.069432,-0.15019977 0.041614,-0.20494476 -0.00537,-0.23060864 -0.074587,-0.23247841 -0.2573344,-0.43444042 -0.074586,-0.23247847 -0.00537,-0.2306086 0.041615,-0.2049449 0.069426,-0.1501999 0.2275006,-0.00434 0.010278,-0.05193 -0.026454,-0.029252 -0.061181,-0.00125 -0.0255,-0.083528 0.1474817,0.07566 0.083416,0.1119147 0.1329831,0.038674 0.066445,0.091226 z"
     fill="#000000"
     stroke="none"
     id="path1-0"
     style="fill:#d40000" />
  <path
     d="m 0.0010434,1.0009893 -0.0518538,-0.0310073 0.0530653,-0.0304741 0.06491792,0.0584182 0.10396958,0.0439027 0.13388238,-0.035436 0.12917836,0.052879 0.16537588,-0.01122 -0.0649179,-0.0584182 -0.0530653,0.0304741 -0.037751,-0.011424 -0.017966,-0.0497953 L 0.61856361,0.83786014 0.60060261,0.67336872 0.53058401,0.47631157 0.40706992,0.28149492 0.22329159,0.12076268 -0.22120467,-0.1187841 -0.404983,-0.27951634 l -0.12351409,-0.19481665 -0.0700186,-0.19705715 -0.017961,-0.16449141 0.19268479,-0.1210282 -0.017966,-0.049795 -0.037751,-0.011424 -0.0530653,0.030474 -0.0649179,-0.058418 0.16537588,-0.01122 0.12917818,0.052879 0.13388238,-0.035436 0.10396958,0.0439031 0.0649179,0.058418 0.05306533,-0.030474 -0.0518538,-0.031007 0.05928199,-0.0151741 0.03332116,0.0211031 0.0039957,0.052786 -0.21803223,0.065094 -0.0266805,0.1633039 0.0147727,0.20860463 0.0669191,0.2207512 0.13410326,0.20402364 0.36425008,0.34968767 0.13410326,0.20402364 0.0669191,0.2207512 0.0147727,0.20860463 -0.0266805,0.16330394 -0.21803223,0.065094 0.003996,0.052786 0.0333212,0.021103 0.059282,-0.015174 0.0469318,0.073651 -0.16235353,-0.033413 -0.1103333,-0.085497 -0.13848266,-0.00166 -0.08844294,-0.070107 z"
     fill="#000000"
     stroke="none"
     id="path1-6"
     style="fill:#ffcc00" />
</svg>
