<svg xmlns="http://www.w3.org/2000/svg" viewBox="-10.647726262130398 -11.264324109333018 21.26524645065852 22.322606685998284">
  <path d="M 0.0,-1.0 L 0.0518538013259216,-0.9689927529881386 L -0.0012115326609392304,-0.9385186924739307 L -0.06612945444786711,-0.9969368672018804 L -0.1700990281729549,-1.0408395639956456 L -0.3039814100313283,-1.0054036844545566 L -0.43315977376854303,-1.0582825766652657 L -0.5985356467796448,-1.0470625955263853 L -0.5336177249927169,-0.9886444207984356 L -0.48055239100585606,-1.0191184813126435 L -0.44280144035273517,-1.0076944318212486 L -0.42483539708703044,-0.9578990659210096 L -0.6175201885281224,-0.8368708462043974 L -0.5995591523620704,-0.6723794328475785 L -0.5295405545300528,-0.4753222805972182 L -0.4060264614770264,-0.28050563392190375 L -0.22224812888039897,-0.11977339419808179 L 0.22224812888039897,0.11977339419808179 L 0.4060264614770264,0.28050563392190375 L 0.5295405545300528,0.4753222805972182 L 0.5995591523620704,0.6723794328475785 L 0.6175201885281224,0.8368708462043974 L 0.42483539708703044,0.9578990659210096 L 0.44280144035273517,1.0076944318212486 L 0.48055239100585606,1.0191184813126435 L 0.5336177249927169,0.9886444207984356 L 0.5985356467796448,1.0470625955263853 L 0.43315977376854303,1.0582825766652657 L 0.3039814100313283,1.0054036844545566 L 0.1700990281729549,1.0408395639956456 L 0.06612945444786711,0.9969368672018804 L 0.0012115326609392304,0.9385186924739307 L -0.0518538013259216,0.9689927529881386 L 0.0,1.0 L -0.059281986707731445,1.0151737960756377 L -0.09260314854812075,0.9940706362268664 L -0.09659888719517302,0.9412843572480608 L 0.12143334053484225,0.8761905288804159 L 0.14811382759517308,0.7128865929250765 L 0.1333411633294166,0.5042819580631572 L 0.0664220825388416,0.28353075505245884 L -0.06768117703436824,0.07950711870001781 L -0.43193125750085726,-0.2701805503339737 L -0.5660345170740672,-0.47420418668641473 L -0.6329535978646421,-0.6949553896971129 L -0.6477262621303986,-0.9035600245590323 L -0.6210457750700679,-1.0668639605143717 L -0.4030135473400525,-1.1319577888820165 L -0.4070092859871048,-1.184744067860822 L -0.44033044782749403,-1.2058472277095937 L -0.4996124345352255,-1.190673431633956 L -0.5465442721526441,-1.2643241093330184 L -0.3841907439148412,-1.2309115485260733 L -0.2738574444345213,-1.145414239065237 L -0.13537477794263753,-1.143757491583103 L -0.046931837617418516,-1.0736506776990624 Z" fill="black" stroke="none" />
</svg>